<svg xmlns="http://www.w3.org/2000/svg" viewBox="0 0 17.72 17.72"><defs><style>.cls-1{fill:#fff;}</style></defs><g id="Layer_2" data-name="Layer 2"><g id="Menu_content" data-name="Menu content"><path class="cls-1" d="M17.72,3.53a3.41,3.41,0,0,0-1-2.5,3.37,3.37,0,0,0-2.51-1H3.53A3.38,3.38,0,0,0,1,1a3.38,3.38,0,0,0-1,2.5V14.19A3.37,3.37,0,0,0,1,16.7a3.41,3.41,0,0,0,2.5,1H14.19a3.48,3.48,0,0,0,3.53-3.53Zm-8.83.91a4.12,4.12,0,0,0-1.4.24,6.22,6.22,0,0,0-1.26.64H1.79V4.44A2.6,2.6,0,0,1,4.44,1.79h8.85a2.66,2.66,0,0,1,1.9.76A2.51,2.51,0,0,1,16,4.44v.88H11.51a6.94,6.94,0,0,0-1.24-.64A3.85,3.85,0,0,0,8.89,4.44ZM13.29,16H4.44a2.51,2.51,0,0,1-1.89-.79,2.61,2.61,0,0,1-.76-1.87V6.23H5.32a6.33,6.33,0,0,0-.64,1.24,4.11,4.11,0,0,0-.24,1.42,4.14,4.14,0,0,0,.35,1.72A4.85,4.85,0,0,0,5.73,12a4.43,4.43,0,0,0,3.16,1.31A4.14,4.14,0,0,0,10.61,13,4.5,4.5,0,0,0,12,12a4.66,4.66,0,0,0,.94-1.4,4.14,4.14,0,0,0,.36-1.72A3.89,3.89,0,0,0,13,7.47a8.36,8.36,0,0,0-.6-1.24H16v7.09a2.52,2.52,0,0,1-.79,1.87A2.57,2.57,0,0,1,13.29,16ZM8.89,6.23A2.6,2.6,0,0,1,10.76,7a2.52,2.52,0,0,1,.79,1.9,2.5,2.5,0,0,1-.79,1.89,2.63,2.63,0,0,1-1.87.75A2.66,2.66,0,0,1,7,10.78a2.53,2.53,0,0,1-.78-1.89A2.55,2.55,0,0,1,7,7,2.63,2.63,0,0,1,8.89,6.23Zm3.55-1.79h1.75V2.68H12.44Z"/></g></g></svg>
