<svg width="115" height="114" viewBox="0 0 115 114" fill="none" xmlns="http://www.w3.org/2000/svg">
<path opacity="0.28" d="M57.3597 2.12012C46.5055 2.11814 35.8944 5.33488 26.8683 11.3635C17.8423 17.3922 10.8066 25.9619 6.65104 35.9892C2.49547 46.0164 1.4067 57.0508 3.52232 67.6969C5.63793 78.343 10.863 88.1226 18.5367 95.7991C26.2104 103.476 35.988 108.704 46.6333 110.824C57.2786 112.943 68.3134 111.858 78.3421 107.706C88.3709 103.555 96.9433 96.522 102.975 87.4982C109.007 78.4743 112.228 67.8644 112.23 57.0101C112.232 49.8028 110.815 42.6656 108.059 36.0062C105.302 29.3467 101.261 23.2955 96.1657 18.1982C91.0703 13.101 85.0207 9.05749 78.3622 6.29877C71.7038 3.54004 64.567 2.12012 57.3597 2.12012V2.12012ZM42.6498 81.8901V32.1002L85.7798 57.0101L42.6498 81.8901Z" stroke="white" stroke-width="4" stroke-miterlimit="10"/>
</svg>
