<svg width="100" height="87" viewBox="0 0 100 87" fill="none" xmlns="http://www.w3.org/2000/svg">
<path d="M100 20.05C99.56 29.8033 92.7633 43.1567 79.61 60.11C66.01 77.81 54.5067 86.6633 45.1 86.67C39.2733 86.67 34.3433 81.2767 30.31 70.49L22.19 40.84C19.19 30.06 15.9767 24.6667 12.55 24.66C11.8033 24.66 9.19 26.2333 4.71 29.38L0 23.31C4.94 18.97 9.80333 14.6367 14.59 10.31C21.1833 4.61 26.1233 1.61 29.41 1.31C37.19 0.563335 41.98 5.89667 43.78 17.31C45.72 29.6233 47.0533 37.29 47.78 40.31C50.0333 50.5233 52.5033 55.6267 55.19 55.62C57.29 55.62 60.4333 52.3067 64.62 45.68C68.8067 39.0533 71.05 34.01 71.35 30.55C71.95 24.84 69.71 21.97 64.62 21.97C62.0673 22.0066 59.5491 22.5647 57.22 23.61C62.16 7.42334 71.56 -0.446665 85.42 1.8701e-06C95.7 0.313335 100.56 6.99667 100 20.05Z" fill="#CCC4A7"/>
</svg>
