<svg xmlns="http://www.w3.org/2000/svg" viewBox="0 0 16.94 16.16"><defs><style>.cls-1{fill:#fff;}</style></defs><g id="Layer_2" data-name="Layer 2"><g id="Menu_content" data-name="Menu content"><path class="cls-1" d="M2,3.71a2.16,2.16,0,0,0,1.49-.53,1.73,1.73,0,0,0,.59-1.32A2.08,2.08,0,0,0,3.5.51,2,2,0,0,0,2.09,0,2.19,2.19,0,0,0,.58.51,1.73,1.73,0,0,0,0,1.86,1.8,1.8,0,0,0,.54,3.18,2.06,2.06,0,0,0,2,3.71ZM3.85,5.23H.2V16.16H3.85ZM16.94,9.92a5.19,5.19,0,0,0-1.17-3.75,4,4,0,0,0-3-1.18,3.25,3.25,0,0,0-2.2.62A6.29,6.29,0,0,0,9.51,6.79V5.23H5.89V16.16H9.51V9.59a.93.93,0,0,1,.09-.42,2.68,2.68,0,0,1,.66-.91,1.77,1.77,0,0,1,1.24-.42,1.46,1.46,0,0,1,1.38.7,3.58,3.58,0,0,1,.41,1.8v5.82h3.65ZM9.46,6.85s0-.06,0-.06v.06Z"/></g></g></svg>
