<svg xmlns="http://www.w3.org/2000/svg" viewBox="0 0 15.91 18.15"><defs><style>.cls-1{fill:#fff;}</style></defs><g id="Layer_2" data-name="Layer 2"><g id="Menu_content" data-name="Menu content"><path class="cls-1" d="M15.91,9a7.36,7.36,0,0,1-1.34.14A4,4,0,0,1,11.69,8a4.33,4.33,0,0,1-1.17-3.24,2.74,2.74,0,0,1,.36-1.54,1.08,1.08,0,0,1,.92-.52Q13,2.72,13,4.65a6,6,0,0,1-.11,1.1,8.19,8.19,0,0,1-.23.92,2.66,2.66,0,0,0,.6.57,2.25,2.25,0,0,0,.81.31,3.34,3.34,0,0,0,1.24,0,8.22,8.22,0,0,0,.63-3.1q-.13-4.4-4-4.4A3.83,3.83,0,0,0,8.76,1.37,5.19,5.19,0,0,0,7.65,4.75a7.39,7.39,0,0,0,.88,3.63A5.71,5.71,0,0,0,11,10.79a17,17,0,0,1-3.12,4.43A18.47,18.47,0,0,1,5,10.49a28.59,28.59,0,0,1-1.9-7.76H0a34.74,34.74,0,0,0,2.14,8.64,17.66,17.66,0,0,0,2.7,4.7,8.71,8.71,0,0,0,1.94,1.8,1.62,1.62,0,0,0,1.77,0,11.52,11.52,0,0,0,2.36-2.23,19.79,19.79,0,0,0,2.82-4.24,11.13,11.13,0,0,0,2.18-.25Z"/></g></g></svg>
