<svg width="100" height="139" viewBox="0 0 100 139" fill="none" xmlns="http://www.w3.org/2000/svg">
<path d="M24.4901 5.10012H42.0001C56.112 5.10012 69.646 10.7062 79.625 20.685C89.604 30.6638 95.21 44.198 95.21 58.3101C95.215 66.8445 93.163 75.2543 89.229 82.8279C85.295 90.4015 79.595 96.916 72.61 101.82C72.374 101.976 72.171 102.178 72.014 102.414C71.857 102.649 71.749 102.914 71.697 103.193C71.645 103.471 71.649 103.757 71.71 104.034C71.77 104.31 71.886 104.572 72.05 104.803C72.214 105.034 72.422 105.23 72.663 105.378C72.904 105.527 73.173 105.626 73.453 105.668C73.733 105.711 74.019 105.697 74.293 105.627C74.567 105.556 74.825 105.432 75.05 105.26C82.585 99.967 88.735 92.937 92.978 84.7648C97.222 76.5925 99.435 67.5185 99.43 58.3101C99.43 43.0778 93.38 28.4692 82.61 17.6974C71.84 6.92564 57.232 0.872769 42.0001 0.870117H24.4901C23.9543 0.906981 23.4525 1.14583 23.086 1.53841C22.7195 1.931 22.5156 2.44805 22.5156 2.98512C22.5156 3.52218 22.7195 4.03924 23.086 4.43182C23.4525 4.8244 23.9543 5.06325 24.4901 5.10012Z" fill="#4E4366"/>
<path d="M66.87 90.3401C66.65 90.5095 66.465 90.7205 66.327 90.9612C66.189 91.2019 66.099 91.4675 66.063 91.7428C65.991 92.2989 66.143 92.8608 66.485 93.3051C66.827 93.7493 67.332 94.0394 67.888 94.1116C68.444 94.1838 69.006 94.0322 69.45 93.69C74.855 89.5126 79.23 84.1507 82.238 78.0171C85.246 71.8834 86.806 65.1415 86.8 58.3101C86.801 52.4279 85.643 46.6031 83.392 41.1688C81.14 35.7345 77.84 30.7973 73.679 26.6393C69.519 22.4814 64.579 19.1844 59.143 16.9367C53.708 14.689 47.882 13.5348 41.9998 13.5401H30.6998C30.1402 13.5401 29.6035 13.7624 29.2078 14.1581C28.8121 14.5538 28.5898 15.0905 28.5898 15.6501C28.5898 16.2097 28.8121 16.7464 29.2078 17.1421C29.6035 17.5378 30.1402 17.7601 30.6998 17.7601H41.9998C52.753 17.7627 63.064 22.0361 70.667 29.6404C78.269 37.2447 82.54 47.5573 82.54 58.3101C82.548 64.4912 81.14 70.5921 78.424 76.1444C75.707 81.6967 71.755 86.5528 66.87 90.3401Z" fill="#4E4366"/>
<path d="M56.23 91.74C53.599 92.8429 50.846 93.6316 48.03 94.09L69.88 138.66H79.23L56.23 91.74Z" fill="#4E4366"/>
<path d="M9.0601 34.66H41.5801C44.6859 34.66 47.761 35.2717 50.631 36.4602C53.5 37.6487 56.107 39.3908 58.303 41.5869C60.499 43.783 62.241 46.3902 63.43 49.2595C64.618 52.1289 65.23 55.2042 65.23 58.31C65.215 62.4411 64.123 66.4969 62.06 70.0764C59.998 73.6559 57.037 76.6353 53.47 78.72C52.551 79.2653 51.595 79.7465 50.61 80.16H50.56C47.867 81.2651 44.991 81.8586 42.0801 81.91H41.5801H13.2802V90.36H42.0001C43.3547 90.3527 44.7074 90.2592 46.05 90.08C48.895 89.7242 51.679 88.9911 54.33 87.9C55.354 87.4709 56.355 86.9903 57.33 86.46C62.376 83.68 66.591 79.6077 69.543 74.6608C72.496 69.7139 74.079 64.0706 74.13 58.31C74.13 54.092 73.299 49.9154 71.684 46.0189C70.069 42.1224 67.702 38.5824 64.718 35.6012C61.734 32.6201 58.191 30.2562 54.293 28.6448C50.395 27.0334 46.218 26.206 42.0001 26.21H0.620102V138.66H9.0601V34.66Z" fill="#4E4366"/>
</svg>
