<svg width="185" height="186" viewBox="0 0 185 186" fill="none" xmlns="http://www.w3.org/2000/svg">
<path d="M79.4901 5.10012H97.0001C111.112 5.10012 124.646 10.7062 134.625 20.685C144.604 30.6638 150.21 44.198 150.21 58.3101V58.3101C150.215 66.8445 148.163 75.2543 144.229 82.8279C140.295 90.4015 134.595 96.916 127.61 101.82C127.374 101.976 127.171 102.178 127.014 102.414C126.857 102.649 126.749 102.914 126.697 103.193C126.645 103.471 126.649 103.757 126.71 104.034C126.77 104.31 126.886 104.572 127.05 104.803C127.214 105.034 127.422 105.23 127.663 105.378C127.904 105.527 128.173 105.626 128.453 105.668C128.733 105.711 129.019 105.697 129.293 105.627C129.567 105.556 129.825 105.432 130.05 105.26C137.585 99.967 143.735 92.937 147.978 84.7648C152.222 76.5925 154.435 67.5185 154.43 58.3101V58.3101C154.43 43.0778 148.38 28.4692 137.61 17.6974C126.84 6.92564 112.232 0.872769 97.0001 0.870117H79.4901C78.9543 0.906981 78.4525 1.14583 78.086 1.53841C77.7195 1.931 77.5156 2.44805 77.5156 2.98512C77.5156 3.52218 77.7195 4.03924 78.086 4.43182C78.4525 4.8244 78.9543 5.06325 79.4901 5.10012V5.10012Z" fill="#4E4366"/>
<path d="M121.87 90.3401C121.65 90.5095 121.465 90.7205 121.327 90.9612C121.189 91.2019 121.099 91.4675 121.063 91.7428C120.991 92.2989 121.143 92.8608 121.485 93.3051C121.827 93.7493 122.332 94.0394 122.888 94.1116C123.444 94.1838 124.006 94.0322 124.45 93.69C129.855 89.5126 134.23 84.1507 137.238 78.0171C140.246 71.8834 141.806 65.1415 141.8 58.3101V58.3101C141.801 52.4279 140.643 46.6031 138.392 41.1688C136.14 35.7345 132.84 30.7973 128.679 26.6393C124.519 22.4814 119.579 19.1844 114.143 16.9367C108.708 14.689 102.882 13.5348 96.9998 13.5401H85.6998C85.1402 13.5401 84.6035 13.7624 84.2078 14.1581C83.8121 14.5538 83.5898 15.0905 83.5898 15.6501C83.5898 16.2097 83.8121 16.7464 84.2078 17.1421C84.6035 17.5378 85.1402 17.7601 85.6998 17.7601H96.9998C107.753 17.7627 118.064 22.0361 125.667 29.6404C133.269 37.2447 137.54 47.5573 137.54 58.3101V58.3101C137.548 64.4912 136.14 70.5921 133.424 76.1444C130.707 81.6967 126.755 86.5528 121.87 90.3401V90.3401Z" fill="#4E4366"/>
<path d="M111.23 91.74C108.599 92.8429 105.846 93.6316 103.03 94.09L124.88 138.66H134.23L111.23 91.74Z" fill="#4E4366"/>
<path d="M64.0601 34.66H96.5801C99.6859 34.66 102.761 35.2717 105.631 36.4602C108.5 37.6487 111.107 39.3908 113.303 41.5869C115.499 43.783 117.241 46.3902 118.43 49.2595C119.618 52.1289 120.23 55.2042 120.23 58.31C120.215 62.4411 119.123 66.4969 117.06 70.0764C114.998 73.6559 112.037 76.6353 108.47 78.72C107.551 79.2653 106.595 79.7465 105.61 80.16H105.56C102.867 81.2651 99.991 81.8586 97.0801 81.91H96.5801H68.2802V90.36H97.0001C98.3547 90.3527 99.7074 90.2592 101.05 90.08C103.895 89.7242 106.679 88.9911 109.33 87.9V87.9C110.354 87.4709 111.355 86.9903 112.33 86.46C117.376 83.68 121.591 79.6077 124.543 74.6608C127.496 69.7139 129.079 64.0706 129.13 58.31V58.31C129.13 54.092 128.299 49.9154 126.684 46.0189C125.069 42.1224 122.702 38.5824 119.718 35.6012C116.734 32.6201 113.191 30.2562 109.293 28.6448C105.395 27.0334 101.218 26.206 97.0001 26.21H55.6201V138.66H64.0601V34.66Z" fill="#4E4366"/>
<path d="M23.1798 161.01C23.1798 155.08 19.4398 151.94 10.9598 151.94H0.839844V184.67H5.21979V170.57H12.7398L19.6698 184.66H24.5898L16.8898 169.44C20.7598 168.16 23.1798 165.47 23.1798 161.01ZM11.0998 166.8H5.21979V155.8H11.3298C14.8398 155.8 18.7998 156.39 18.7998 161.27C18.7998 166.33 13.9298 166.79 11.0998 166.79V166.8Z" fill="#4E4366"/>
<path d="M36.52 169.57H47.5601V165.83H36.52V155.75H51.8901V151.92H32.1499V184.66H52.6201V180.83H36.52V169.57Z" fill="#4E4366"/>
<path d="M70.0002 151.93H59.9102V184.66H64.2802V171.08H69.6202C77.9602 171.08 82.1602 167.98 82.1602 161.41C82.1602 154.84 78.1002 151.93 70.0002 151.93ZM70.0002 167.34H64.3402V155.76H70.4102C75.3302 155.76 77.8902 157.53 77.8902 161.41C77.8302 166.74 73.4002 167.34 69.9402 167.34H70.0002Z" fill="#4E4366"/>
<path d="M112 161.01C112 155.08 108.26 151.94 99.7802 151.94H89.6602V184.67H94.0002V170.57H101.52L108.46 184.66H113.38L105.67 169.44C109.59 168.16 112 165.47 112 161.01ZM99.9102 166.8H94.0002V155.8H100.11C103.62 155.8 107.59 156.39 107.59 161.27C107.63 166.33 102.75 166.79 99.9202 166.79L99.9102 166.8Z" fill="#4E4366"/>
<path d="M125.35 151.92H120.97V184.66H125.35V151.92Z" fill="#4E4366"/>
<path d="M138 160.01C138 156.87 140.51 155.09 144.11 155.09C147.71 155.09 149.63 156.68 151.04 160.09L154.73 158.72C153.27 153.98 149.81 151.38 144.11 151.38C138.23 151.38 133.94 154.62 133.94 160.13C133.94 171.71 151.4 167.75 151.4 175.96C151.4 179.51 148.67 181.43 144.7 181.43C140.33 181.43 138.23 179.43 136.91 175.36L132.85 176.73C134.85 182.66 138.32 185.21 144.52 185.21C151.04 185.21 155.6 181.97 155.6 175.68C155.64 163.92 138 167.47 138 160.01Z" fill="#4E4366"/>
<path d="M168.09 180.83V169.57H179.13V165.83H168.09V155.75H183.46V151.92H163.71V184.66H184.19V180.83H168.09Z" fill="#4E4366"/>
</svg>
